<svg xmlns="http://www.w3.org/2000/svg" xmlns:xlink="http://www.w3.org/1999/xlink"><symbol id="icon-boat-desktop" viewBox="0 0 42 15">
<path d="M39.555 12.056L1.57287 8.06841C1.28101 8.03777 1.0843 8.33255 1.23548 8.56735C3.66312 12.3403 9.41009 15 16.1 15H38.7584C38.9124 15 39.0475 14.9068 39.093 14.7698L39.8504 12.476C39.9148 12.281 39.7727 12.0788 39.555 12.056Z" fill="#011C40"/>
<path d="M41.8896 5.51766C41.7782 5.35594 41.597 5.24833 41.3933 5.22287L30.8932 3.91844C30.5145 3.87213 30.1582 4.1219 30.1065 4.47868C30.0547 4.83545 30.3248 5.16418 30.7078 5.21172L31.8964 5.35915C32.07 5.3807 32.2002 5.51896 32.2002 5.68199V6.69033C32.2002 6.884 32.0195 7.03534 31.8131 7.01447L29.0131 6.73466C28.8353 6.71769 28.7002 6.57744 28.7002 6.41113V3.55647C28.7002 3.49189 28.7205 3.42929 28.759 3.37579L29.9826 1.66575C30.1226 1.47009 30.1387 1.21962 30.0253 1.01028C29.9112 0.800253 29.6852 0.663291 29.4332 0.652208L14.7331 3.06688e-05C14.4972 -0.00195651 14.2683 0.0926639 14.1304 0.272657C14.1304 0.272657 11.3332 3.93541 10.72 4.74152C10.6465 4.83805 10.5233 4.88956 10.3973 4.87649L0.774214 3.91653C0.575451 3.89697 0.379396 3.95635 0.231739 4.07956C0.0847386 4.20353 0 4.37962 0 4.56481C0 5.19291 0.0875277 5.80856 0.252739 6.40601C0.289161 6.53778 0.412372 6.63362 0.55724 6.64929L40.1052 10.8012C40.2725 10.8188 40.4293 10.7229 40.479 10.5729L41.9694 6.06093C42.0295 5.87773 42.0001 5.67878 41.8896 5.51766ZM20.2007 1.90513L19.6547 5.46745C19.6281 5.64026 19.4635 5.76354 19.2767 5.74596C17.911 5.61748 12.7799 5.11465 12.7799 5.11465C12.5139 5.0879 12.3768 4.80419 12.5321 4.60073L14.9366 1.46428C15.0059 1.37424 15.1193 1.32273 15.2383 1.328L19.871 1.53345C20.0768 1.54254 20.23 1.71466 20.2007 1.90513ZM27.7894 2.3806L27.3589 2.98065C27.3204 3.03415 27.3001 3.09736 27.3001 3.16194V6.20187C27.3001 6.39554 27.1195 6.54687 26.913 6.52601L21.3577 5.97166C21.161 5.95209 21.0203 5.78379 21.0483 5.6012L21.6146 1.9078C21.6398 1.74149 21.7973 1.62019 21.9779 1.62799L27.5149 1.87386C27.7866 1.88556 27.9406 2.16927 27.7894 2.3806ZM36.4001 7.1097C36.4001 7.30337 36.2195 7.45471 36.013 7.43384C36.013 7.43384 34.5598 7.28121 33.9088 7.20952C33.7324 7.19064 33.6001 7.051 33.6001 6.88599V5.94292C33.6001 5.74596 33.7863 5.59333 33.9963 5.61939L36.0963 5.88025C36.2699 5.90241 36.4001 6.04068 36.4001 6.20378V7.1097ZM40.2662 6.78228L40.0065 7.56752C39.9576 7.71625 39.8014 7.81209 39.6348 7.79581L38.1123 7.64387C37.9352 7.62629 37.8001 7.48604 37.8001 7.31973V6.46532C37.8001 6.26836 37.9863 6.11573 38.1963 6.14179L39.9778 6.3629C40.192 6.38966 40.3299 6.58929 40.2662 6.78228Z" fill="#011C40"/>
</symbol><symbol id="icon-boat" viewBox="0 0 38 13">
<path d="M35.7879 10.4485L1.42308 6.99263C1.15901 6.96606 0.981029 7.22155 1.11781 7.42503C3.31425 10.6949 8.51389 13 14.5667 13H35.0671C35.2065 13 35.3287 12.9192 35.3699 12.8005L36.0551 10.8125C36.1134 10.6435 35.9849 10.4683 35.7879 10.4485Z" fill="#011C40"/>
<path d="M37.9001 4.78198C37.7994 4.64181 37.6353 4.54855 37.4511 4.52649L27.951 3.39598C27.6084 3.35584 27.286 3.57231 27.2392 3.88152C27.1924 4.19072 27.4368 4.47562 27.7832 4.51682L28.8586 4.6446C29.0157 4.66328 29.1335 4.7831 29.1335 4.92439V5.79829C29.1335 5.96614 28.9701 6.09729 28.7832 6.07921L26.2499 5.83671C26.0891 5.822 25.9669 5.70045 25.9669 5.55631V3.08227C25.9669 3.0263 25.9852 2.97205 26.0201 2.92568L27.1271 1.44365C27.2538 1.27407 27.2684 1.05701 27.1658 0.875578C27.0625 0.693552 26.858 0.574852 26.63 0.565247L13.33 2.65797e-05C13.1165 -0.00169564 12.9094 0.0803087 12.7847 0.236302C12.7847 0.236302 10.2539 3.41069 9.69909 4.10932C9.63259 4.19298 9.52111 4.23762 9.40711 4.22629L0.700479 3.39433C0.520646 3.37737 0.343263 3.42884 0.209669 3.53562C0.0766682 3.64306 0 3.79567 0 3.95617C0 4.50052 0.0791917 5.03408 0.228669 5.55188C0.261622 5.66607 0.373099 5.74914 0.50417 5.76272L36.2857 9.36103C36.437 9.37627 36.5789 9.29321 36.6239 9.16318L37.9723 5.25281C38.0267 5.09403 38.0001 4.92161 37.9001 4.78198ZM18.2768 1.65111L17.7828 4.73846C17.7588 4.88822 17.6099 4.99507 17.4408 4.97983C16.2052 4.86848 11.5628 4.4327 11.5628 4.4327C11.3221 4.40951 11.198 4.16363 11.3386 3.9873L13.5141 1.26904C13.5768 1.19101 13.6794 1.14636 13.7871 1.15093L17.9785 1.32899C18.1647 1.33687 18.3034 1.48604 18.2768 1.65111ZM25.1428 2.06318L24.7533 2.58323C24.7185 2.6296 24.7001 2.68438 24.7001 2.74035V5.37495C24.7001 5.5428 24.5367 5.67396 24.3498 5.65587L19.3237 5.17544C19.1457 5.15848 19.0184 5.01262 19.0437 4.85438L19.556 1.65343C19.5788 1.50929 19.7213 1.40417 19.8848 1.41092L24.8945 1.62402C25.1403 1.63415 25.2796 1.88003 25.1428 2.06318ZM32.9334 6.16174C32.9334 6.32959 32.77 6.46074 32.5832 6.44266C32.5832 6.44266 31.2684 6.31038 30.6794 6.24825C30.5198 6.23189 30.4001 6.11087 30.4001 5.96786V5.15053C30.4001 4.97983 30.5686 4.84755 30.7586 4.87014L32.6586 5.09622C32.8156 5.11543 32.9334 5.23525 32.9334 5.37661V6.16174ZM36.4314 5.87797L36.1964 6.55851C36.1521 6.68742 36.0108 6.77048 35.8601 6.75637L34.4826 6.62469C34.3224 6.60945 34.2001 6.4879 34.2001 6.34377V5.60328C34.2001 5.43258 34.3686 5.3003 34.5586 5.32289L36.1704 5.51452C36.3642 5.5377 36.489 5.71072 36.4314 5.87797Z" fill="#011C40"/>
</symbol><symbol id="icon-checkbox" viewBox="0 0 12 8">
<path d="M1 2.5L5.28571 7L11 1" stroke="#101A56"/>
</symbol><symbol id="icon-close" viewBox="0 0 15 15">
<path d="M1 1L7.5 7.5M14 14L7.5 7.5M7.5 7.5L14 1L1 14" stroke="#011C40" stroke-width="2"/>
</symbol><symbol id="icon-hamburger" viewBox="0 0 24 14">
<path d="M0 1H24M0 7H24M0 13H24" stroke="#F9FBFD" stroke-width="2"/>
</symbol><symbol id="icon-ship-desktop" viewBox="0 0 27 32">
<path d="M4.40549 16.3962L13.2165 9.93576C13.4162 9.8063 13.6711 9.8063 13.8708 9.93576L22.7254 16.3962V8.68818C22.7739 7.6312 21.9743 6.7343 20.9396 6.68484C20.9242 6.68407 20.9089 6.68356 20.8934 6.68322H6.23749C5.20189 6.70667 4.38094 7.58319 4.4039 8.6411C4.40423 8.6568 4.40473 8.67249 4.40549 8.68818V16.3962Z" fill="#011C40"/>
<path d="M15.7464 0H11.3845V5.34662H15.7464V0Z" fill="#011C40"/>
<path d="M24.2956 30.1638L27 21.03L23.2052 18.3122L22.9434 18.1785L14.0016 11.8072V30.6094H13.5217L12.6929 30.5649V11.8072L0 21.03L2.79163 30.1193L4.4039 31.9904C4.4039 31.9904 5.7624 31.9904 7.15817 31.9904C7.15817 31.9904 12.2467 31.997 13.5218 31.9904C14.8198 32.012 17.1251 31.9904 17.1251 31.9904H22.8127L24.2956 30.1638Z" fill="#011C40"/>
</symbol><symbol id="icon-ship" viewBox="0 0 21 26">
<path d="M3.42649 13.3219L10.2795 8.0728C10.4348 7.96762 10.6331 7.96762 10.7884 8.0728L17.6753 13.3219V7.05914C17.713 6.20035 17.0911 5.47162 16.2864 5.43143C16.2744 5.43081 16.2625 5.43039 16.2505 5.43011H4.85138C4.04591 5.44917 3.4074 6.16134 3.42525 7.0209C3.42551 7.03365 3.4259 7.0464 3.42649 7.05914V13.3219Z" fill="#011C40"/>
<path d="M12.2472 0H8.85464V4.34413H12.2472V0Z" fill="#011C40"/>
<path d="M18.8966 24.5081L21 17.0869L18.0485 14.8786L17.8449 14.7701L10.8901 9.59332V24.8701H10.5169L9.87229 24.8339V9.59332L0 17.0869L2.17127 24.4719L3.42525 25.9922C3.42525 25.9922 4.48187 25.9922 5.56747 25.9922C5.56747 25.9922 9.52521 25.9975 10.517 25.9922C11.5265 26.0097 13.3195 25.9922 13.3195 25.9922H17.7432L18.8966 24.5081Z" fill="#011C40"/>
</symbol><symbol id="icon-tick-desktop" viewBox="0 0 38 21">
<path d="M28.7534 2.21506L26.4398 0L16.0732 9.93254L18.3868 12.1476L28.7534 2.21506ZM35.6945 0L18.3787 16.5699L11.5602 10.0421L9.24656 12.2572L18.3787 21L38 2.21506L35.6945 0ZM0 12.2572L9.1321 21L11.4458 18.7849L2.31368 10.0421L0 12.2572Z" fill="#011C40"/>
</symbol><symbol id="icon-tick" viewBox="0 0 33 19">
<path d="M24.9701 2.0041L22.9608 0L13.9583 8.98658L15.9675 10.9907L24.9701 2.0041ZM30.9978 0L15.9604 14.9918L10.0392 9.08572L8.02991 11.0898L15.9604 19L33 2.0041L30.9978 0ZM0 11.0898L7.93051 19L9.93976 16.9959L2.00925 9.08572L0 11.0898Z" fill="#011C40"/>
</symbol></svg>